<svg width="116" height="39" viewBox="0 0 116 39" fill="none" xmlns="http://www.w3.org/2000/svg">
<path d="M14.2525 0.253906H15.2816C18.8543 0.33177 22.3687 1.77224 24.8929 4.32227C23.9609 5.2761 23.0095 6.191 22.0969 7.14482C20.6794 5.86008 18.9708 4.86732 17.1068 4.51693C14.3496 3.93296 11.3788 4.45853 9.0682 6.03527C6.54402 7.68987 4.83534 10.493 4.46643 13.4907C4.05867 16.4495 4.89359 19.5641 6.81586 21.861C8.66045 24.0996 11.4759 25.5011 14.3884 25.5985C17.1068 25.7542 19.9416 24.9172 21.9221 23.0095C23.4755 21.6664 24.1939 19.6224 24.4269 17.6369C21.2037 17.6369 17.9805 17.6564 14.7573 17.6369V13.627H28.3297C29.0287 17.9289 28.019 22.7759 24.757 25.8515C22.5823 28.0317 19.5727 29.3165 16.5048 29.5695C13.5341 29.8615 10.4662 29.297 7.82553 27.8565C4.66059 26.163 2.13641 23.3015 0.893737 19.9339C-0.27127 16.8388 -0.290687 13.335 0.796653 10.2204C1.78691 7.37842 3.68975 4.86732 6.13627 3.11539C8.4857 1.38293 11.34 0.429099 14.2525 0.253906Z" fill="#A2BDE6"/>
<path d="M92.1128 1.26611H96.268V29.0634C94.8894 29.0634 93.4914 29.0828 92.1128 29.0439C92.1322 19.7976 92.1128 10.5319 92.1128 1.26611Z" fill="#A2BDE6"/>
<path d="M37.5707 10.9017C40.1337 10.415 42.9103 10.9601 45.0267 12.4979C46.949 13.8605 48.2887 16.0017 48.6965 18.3376C49.2207 21.0434 48.5606 24.0022 46.8131 26.1435C44.9296 28.5378 41.8424 29.8225 38.8328 29.6278C36.0756 29.4721 33.3961 28.09 31.765 25.832C29.9205 23.3404 29.4739 19.9144 30.4835 16.9945C31.4932 13.8605 34.3475 11.4662 37.5707 10.9017ZM38.1532 14.6002C37.1047 14.8727 36.1338 15.4762 35.4348 16.3327C33.5514 18.5907 33.6679 22.2697 35.7455 24.3721C36.9299 25.5789 38.7163 26.1435 40.3667 25.8125C41.9006 25.54 43.2404 24.5083 43.9782 23.1457C45.2597 20.8293 44.8908 17.6369 42.9297 15.8265C41.6676 14.6586 39.823 14.1719 38.1532 14.6002Z" fill="#A2BDE6"/>
<path d="M58.153 10.9016C61.0849 10.3371 64.2887 11.1547 66.4828 13.2181C70.0555 16.43 70.4438 22.4449 67.3954 26.1434C65.5508 28.4793 62.5606 29.7641 59.6092 29.6278C56.7938 29.55 54.0172 28.1484 52.3473 25.832C50.4639 23.2819 50.0561 19.7781 51.1241 16.7998C52.192 13.7631 54.988 11.4467 58.153 10.9016ZM58.7355 14.6002C57.687 14.8727 56.7161 15.4761 56.0171 16.3132C54.1531 18.5323 54.2308 22.1529 56.2307 24.2747C57.4151 25.54 59.2597 26.1629 60.9684 25.8125C62.4829 25.5205 63.8421 24.5083 64.5799 23.1457C65.842 20.8098 65.4731 17.6174 63.4926 15.807C62.2305 14.6391 60.3859 14.1719 58.7355 14.6002Z" fill="#A2BDE6"/>
<path d="M75.6092 12.0308C77.8421 10.6292 80.8129 10.2399 83.2206 11.4468C83.9778 11.7777 84.5991 12.3422 85.2011 12.9068C85.2205 12.3812 85.2011 11.8361 85.2205 11.2911C86.5214 11.3105 87.8223 11.2911 89.1427 11.3105V28.4794C89.1233 31.0684 88.4631 33.8131 86.5991 35.7013C84.5603 37.7841 81.4342 38.4265 78.6188 37.9983C75.6092 37.5505 72.9879 35.3509 71.8229 32.5673C72.9879 32.0028 74.2112 31.5551 75.415 31.0295C76.0946 32.6257 77.4732 33.9883 79.2013 34.2997C80.9294 34.6112 82.9293 34.1829 84.0555 32.7425C85.2593 31.2631 85.2593 29.2386 85.2011 27.4283C84.3079 28.3043 83.2788 29.0829 82.0361 29.3749C79.3372 30.134 76.3664 29.1997 74.2888 27.3699C72.1918 25.5401 70.9491 22.7175 71.0656 19.9145C71.1239 16.7415 72.9102 13.6854 75.6092 12.0308ZM79.6284 14.5224C78.444 14.7171 77.3373 15.3789 76.58 16.2938C74.7548 18.474 74.7548 21.9584 76.5994 24.0996C77.6479 25.3649 79.3372 26.0657 80.9682 25.8905C82.5021 25.7348 83.9196 24.7615 84.6768 23.4183C85.9583 21.1408 85.7447 18.0457 84.0166 16.0602C82.9487 14.8339 81.24 14.2304 79.6284 14.5224Z" fill="#A2BDE6"/>
<path d="M101.259 13.0235C103.589 10.8433 107.181 10.1036 110.171 11.2521C113.006 12.3227 114.812 15.0285 115.724 17.8121C111.511 19.564 107.317 21.2965 103.104 23.0484C103.686 24.158 104.579 25.1702 105.783 25.579C107.472 26.1824 109.492 25.9683 110.909 24.8393C111.472 24.411 111.919 23.8465 112.346 23.3015C113.414 24.0217 114.482 24.7225 115.55 25.4427C114.035 27.7202 111.492 29.3164 108.754 29.5695C105.725 29.9393 102.502 28.7714 100.541 26.3966C97.3173 22.6591 97.628 16.3911 101.259 13.0235ZM103.337 16.6247C102.676 17.5785 102.405 18.7465 102.424 19.8949C105.239 18.727 108.055 17.559 110.87 16.3716C110.404 15.2815 109.278 14.6197 108.132 14.4445C106.288 14.1136 104.366 15.1063 103.337 16.6247Z" fill="#A2BDE6"/>
</svg>
