<svg width="204" height="40" viewBox="0 0 204 40" fill="none" xmlns="http://www.w3.org/2000/svg">
<path d="M72.9671 30.1904V15.6441L67.2409 30.1904H65.3557L59.63 15.6467V30.1904H55.3066V10.0205H61.3658L66.2978 22.6288L71.2302 10.0205H77.319V30.1904H72.9671Z" fill="#A2BDE6"/>
<path d="M89.737 30.1902V28.6457C88.7318 29.8548 86.9968 30.55 85.0785 30.55C82.734 30.55 79.9941 28.9777 79.9941 25.7126C79.9941 22.2655 82.734 20.9957 85.0785 20.9957C87.0577 20.9957 88.7623 21.6306 89.737 22.7799V20.9352C89.737 19.4537 88.4583 18.486 86.5096 18.486C84.9566 18.486 83.4951 19.0912 82.2777 20.2075L80.7541 17.5167C82.5486 15.9142 84.8641 15.2183 87.1781 15.2183C90.5579 15.2183 93.633 16.5485 93.633 20.7511V30.1902H89.737ZM89.737 26.6823V24.8662C89.0975 24.0193 87.8793 23.5659 86.6311 23.5659C85.1079 23.5659 83.8608 24.3821 83.8608 25.7731C83.8608 27.1646 85.109 27.9501 86.6311 27.9501C87.8793 27.9501 89.1001 27.5265 89.737 26.6797V26.6823Z" fill="#A2BDE6"/>
<path d="M96.748 30.1904V15.5835H100.613V30.1904H96.748Z" fill="#A2BDE6"/>
<path d="M103.809 30.1904V10.0205H107.675V30.1904H103.809Z" fill="#A2BDE6"/>
<path d="M111.12 30.1904V10.0205H121.807C125.673 10.0205 127.652 12.4723 127.652 15.1605C127.652 17.6702 126.069 19.3933 124.151 19.7867C126.343 20.119 128.048 22.2051 128.048 24.715C128.048 27.7687 126.038 30.1878 122.142 30.1878L111.12 30.1904ZM123.238 15.919C123.238 14.6795 122.324 13.8026 120.863 13.8026H115.442V18.0354H120.861C122.323 18.0354 123.236 17.219 123.236 15.919H123.238ZM123.634 24.1128C123.634 22.8432 122.72 21.8149 121.045 21.8149H115.442V26.4109H121.044C122.658 26.4109 123.632 25.5641 123.632 24.1128H123.634Z" fill="#A2BDE6"/>
<path d="M130.854 30.1904V10.0205H134.72V30.1904H130.854Z" fill="#A2BDE6"/>
<path d="M147.802 30.1904V28.3429C146.798 29.4317 145.032 30.5501 142.627 30.5501C139.4 30.5501 137.877 28.7967 137.877 25.9544V15.5835H141.745V24.4423C141.745 26.4688 142.811 27.1337 144.455 27.1337C145.947 27.1337 147.134 26.3175 147.804 25.4707V15.5835H151.67V30.1904H147.802Z" fill="#A2BDE6"/>
<path d="M153.762 28.2827L155.436 25.5035C156.532 26.5319 158.693 27.5292 160.521 27.5292C162.195 27.5292 162.987 26.8942 162.987 25.9873C162.987 23.5992 154.279 25.564 154.279 19.8195C154.279 17.3677 156.41 15.2236 160.307 15.2236C162.776 15.2236 164.752 16.0703 166.214 17.219L164.661 19.9405C163.778 19.0334 162.103 18.2472 160.307 18.2472C158.907 18.2472 157.996 18.8518 157.996 19.6682C157.996 21.8149 166.734 20.0005 166.734 25.8965C166.734 28.5879 164.422 30.5527 160.34 30.5527C157.78 30.5501 155.314 29.7037 153.762 28.2827Z" fill="#A2BDE6"/>
<path d="M170.016 26.5293V18.9399H167.58V15.5835H170.016V11.5928H173.882V15.5835H176.866V18.9399H173.882V25.5035C173.882 26.4426 174.37 27.1363 175.222 27.1363C175.8 27.1363 176.349 26.9245 176.562 26.6824L177.384 29.6166C176.806 30.1309 175.77 30.5553 174.156 30.5553C171.447 30.5501 170.016 29.1594 170.016 26.5293Z" fill="#A2BDE6"/>
<path d="M177.975 22.8705C177.975 18.6371 181.141 15.2207 185.586 15.2207C189.999 15.2207 192.954 18.4858 192.954 23.2329V24.1387H182.024C182.298 25.9224 183.757 27.4039 186.256 27.4039C187.504 27.4039 189.209 26.8899 190.153 25.9829L191.886 28.5226C190.425 29.8532 188.111 30.5483 185.827 30.5483C181.353 30.5498 177.975 27.5566 177.975 22.8705ZM185.586 18.3653C183.181 18.3653 182.146 20.0279 181.993 21.4792H189.242C189.118 20.0884 188.143 18.3653 185.586 18.3653Z" fill="#A2BDE6"/>
<path d="M195.213 30.1901V15.5833H199.08V17.5489C200.145 16.2787 201.941 15.2207 203.768 15.2207V18.97C203.494 18.9094 203.159 18.8792 202.703 18.8792C201.423 18.8792 199.719 19.6048 199.078 20.5422V30.1901H195.213Z" fill="#A2BDE6"/>
<path fill-rule="evenodd" clip-rule="evenodd" d="M21.1049 39.817C27.7068 39.6044 34.0517 36.1102 37.5976 30.009C43.0543 20.6196 39.8165 8.61403 30.3638 3.19295C20.911 -2.22817 8.82481 0.989229 3.36734 10.378C-0.179427 16.476 -0.0529298 23.6846 3.06373 29.4732C3.8375 30.9127 5.89894 30.9536 6.72016 29.5397L9.00668 25.6067C9.01456 25.5926 9.02352 25.5783 9.03251 25.565C9.10401 25.4546 9.19669 25.3594 9.30523 25.2845C9.41382 25.21 9.53611 25.1572 9.66521 25.1296C9.79427 25.1019 9.92761 25.0997 10.0575 25.1229C10.1874 25.1465 10.3114 25.1952 10.4224 25.2665C10.6389 25.4115 10.7915 25.6332 10.8489 25.886C10.9063 26.1391 10.8642 26.4044 10.7313 26.6276L7.2736 32.5775C7.02864 32.9978 6.94004 33.49 7.02328 33.9686C7.10652 34.4472 7.35628 34.8814 7.72901 35.1954L7.76747 35.2279C8.00151 35.4205 8.27505 35.56 8.569 35.6368C8.86298 35.7131 9.17023 35.7249 9.4693 35.6714C9.76834 35.6179 10.052 35.4999 10.3004 35.3261C10.5488 35.1519 10.7559 34.9265 10.9074 34.6645L16.1192 25.7044C16.1276 25.6904 16.1361 25.6764 16.145 25.6627C16.2897 25.4403 16.5175 25.2838 16.7782 25.2277C17.0389 25.172 17.3113 25.2211 17.5355 25.365C17.7525 25.5093 17.9057 25.731 17.9636 25.9838C18.0215 26.2369 17.9798 26.5026 17.847 26.7262L12.6504 35.6637C12.5908 35.7663 12.5398 35.8736 12.4981 35.9843C12.3064 36.4998 12.3286 37.0699 12.5599 37.5691C12.7912 38.0684 13.2126 38.4558 13.7315 38.6462L13.7795 38.6635C14.24 38.8274 14.7438 38.8251 15.2028 38.6573C15.6619 38.4894 16.0469 38.1665 16.2905 37.7451L19.7624 31.7724L19.7877 31.7311C19.8592 31.6207 19.9518 31.5255 20.0604 31.4506C20.1689 31.3757 20.2912 31.323 20.4203 31.2953C20.5494 31.2676 20.6827 31.2654 20.8127 31.2886C20.9426 31.3123 21.0666 31.361 21.1777 31.4318C21.3955 31.5765 21.5493 31.7986 21.6073 32.0521C21.6653 32.3059 21.6232 32.572 21.4897 32.7959L19.218 36.7042C18.3962 38.1174 19.462 39.8694 21.1049 39.817ZM19.9998 22.3174C20.9806 27.3125 24.4849 31.1182 26.6042 33.021C26.7484 33.1502 26.9268 33.2343 27.1171 33.2635C27.3077 33.293 27.5024 33.266 27.6786 33.1863C27.8543 33.107 28.0034 32.9779 28.1081 32.8148C28.2129 32.6517 28.2687 32.4616 28.2691 32.2672V8.11121C28.2691 7.93425 28.223 7.76038 28.1349 7.6071C28.0472 7.45379 27.9209 7.32649 27.7689 7.23794C27.6169 7.14942 27.4444 7.10274 27.2687 7.10267C27.0933 7.10259 26.9205 7.14908 26.7685 7.23749L6.00827 19.3161C5.84119 19.4133 5.70559 19.5571 5.61774 19.7301C5.52993 19.9032 5.49366 20.0982 5.51328 20.2916C5.5329 20.485 5.60759 20.6686 5.72833 20.8202C5.8491 20.9717 6.01079 21.0849 6.19392 21.146C8.8907 22.043 13.9093 23.2005 18.6923 21.5562C18.7361 21.5408 18.781 21.5288 18.8266 21.5202C18.9556 21.4949 19.0882 21.4954 19.217 21.5217C19.3458 21.5481 19.4681 21.5998 19.5771 21.6738C19.686 21.7478 19.7795 21.8428 19.852 21.9532C19.9245 22.0636 19.9748 22.1874 19.9998 22.3174Z" fill="#A2BDE6"/>
<path d="M100.338 14.2742C99.9852 13.9612 99.4014 13.3352 99.2386 12.5177C99.2341 12.4963 99.226 12.4759 99.2137 12.4577C99.2014 12.4396 99.1855 12.424 99.1673 12.4118C99.149 12.3997 99.1286 12.3913 99.1071 12.3871C99.0855 12.3829 99.0632 12.383 99.0417 12.3873C99.0346 12.3885 99.0275 12.3903 99.0205 12.3925C98.2237 12.6627 97.388 12.4728 96.9387 12.3257C96.8971 12.3118 96.8625 12.282 96.8428 12.2429C96.8231 12.2038 96.8198 12.1586 96.8335 12.1171C96.8469 12.0785 96.8733 12.0459 96.909 12.0253L100.366 10.0429C100.385 10.0321 100.407 10.0251 100.428 10.0223C100.45 10.0196 100.472 10.0211 100.493 10.0268C100.514 10.0325 100.534 10.0423 100.552 10.0556C100.569 10.069 100.583 10.0855 100.594 10.1045C100.609 10.1293 100.617 10.1576 100.617 10.1864V14.151C100.617 14.1829 100.607 14.2141 100.589 14.2409C100.572 14.2676 100.547 14.2887 100.518 14.3017C100.489 14.3147 100.456 14.319 100.424 14.3142C100.392 14.3093 100.363 14.2954 100.339 14.2742H100.338Z" fill="#A2BDE6"/>
</svg>
