<svg width="153" height="34" viewBox="0 0 153 34" fill="none" xmlns="http://www.w3.org/2000/svg">
<path d="M152.483 15.6427V12.9679H149.162V8.80968L149.05 8.84411L145.93 9.79867L145.868 9.81735V12.9681H140.944V11.2128C140.944 10.3956 141.127 9.77012 141.487 9.35302C141.845 8.94092 142.356 8.73141 143.009 8.73141C143.478 8.73141 143.963 8.84191 144.452 9.0598L144.575 9.11453V6.29765L144.517 6.27647C144.061 6.11257 143.441 6.03003 142.672 6.03003C141.703 6.03003 140.823 6.24086 140.055 6.6587C139.287 7.07713 138.683 7.67446 138.26 8.43392C137.838 9.19251 137.624 10.0686 137.624 11.0382V12.9679H135.311V15.6427H137.624V26.9109H140.944V15.6427H145.868V22.8034C145.868 25.7526 147.259 27.2471 150.003 27.2471C150.454 27.2471 150.928 27.1943 151.413 27.0908C151.906 26.9846 152.242 26.8785 152.44 26.7653L152.483 26.7394V24.0399L152.348 24.1292C152.168 24.2493 151.944 24.3474 151.681 24.4204C151.416 24.4947 151.196 24.5319 151.025 24.5319C150.382 24.5319 149.907 24.3587 149.612 24.0169C149.313 23.6721 149.162 23.069 149.162 22.2254V15.6427H152.483ZM127.896 24.5323C126.691 24.5323 125.741 24.1327 125.071 23.3456C124.397 22.5545 124.056 21.4266 124.056 19.9936C124.056 18.5152 124.397 17.358 125.071 16.5529C125.741 15.7532 126.682 15.3472 127.869 15.3472C129.02 15.3472 129.937 15.7349 130.593 16.5001C131.253 17.2693 131.588 18.4172 131.588 19.9129C131.588 21.4269 131.273 22.59 130.652 23.368C130.035 24.1401 129.108 24.5323 127.896 24.5323ZM128.044 12.632C125.744 12.632 123.918 13.3057 122.616 14.6344C121.315 15.9633 120.655 17.8022 120.655 20.1006C120.655 22.2836 121.299 24.0396 122.569 25.3189C123.84 26.5986 125.568 27.2468 127.707 27.2468C129.936 27.2468 131.726 26.5637 133.027 25.2166C134.329 23.871 134.988 22.0494 134.988 19.8047C134.988 17.5875 134.369 15.8185 133.149 14.5478C131.927 13.2764 130.209 12.632 128.044 12.632ZM115.302 12.632C113.738 12.632 112.444 13.0321 111.456 13.8208C110.461 14.6143 109.957 15.6549 109.957 16.9141C109.957 17.5687 110.066 18.1501 110.28 18.6433C110.496 19.1381 110.829 19.5737 111.272 19.9393C111.712 20.302 112.391 20.6819 113.291 21.0684C114.047 21.3796 114.611 21.6428 114.969 21.8502C115.319 22.0535 115.568 22.2579 115.708 22.457C115.844 22.6518 115.914 22.9184 115.914 23.2473C115.914 24.1841 115.212 24.6399 113.769 24.6399C113.233 24.6399 112.622 24.5281 111.953 24.3077C111.289 24.0906 110.662 23.7727 110.095 23.3652L109.957 23.2663V26.4629L110.007 26.4865C110.477 26.7033 111.069 26.8862 111.768 27.0301C112.464 27.1741 113.097 27.2474 113.647 27.2474C115.345 27.2474 116.711 26.8454 117.709 26.052C118.712 25.2531 119.221 24.1879 119.221 22.8851C119.221 21.9453 118.947 21.1393 118.407 20.4893C117.871 19.8446 116.941 19.2527 115.643 18.7295C114.61 18.3146 113.947 17.9702 113.674 17.7058C113.411 17.4504 113.277 17.0892 113.277 16.6318C113.277 16.2263 113.442 15.9015 113.781 15.6384C114.123 15.374 114.598 15.2395 115.194 15.2395C115.747 15.2395 116.313 15.3269 116.876 15.4982C117.439 15.6694 117.933 15.8988 118.345 16.1794L118.481 16.2721V13.2398L118.429 13.2174C118.048 13.0543 117.547 12.9147 116.937 12.8014C116.331 12.6888 115.78 12.632 115.302 12.632ZM101.301 24.5323C100.096 24.5323 99.1457 24.1327 98.4763 23.3456C97.8024 22.5545 97.4617 21.4269 97.4617 19.9936C97.4617 18.5152 97.8029 17.358 98.477 16.5529C99.1465 15.7532 100.087 15.3472 101.274 15.3472C102.425 15.3472 103.342 15.7349 103.998 16.5001C104.658 17.2693 104.993 18.4172 104.993 19.9129C104.993 21.4269 104.678 22.59 104.057 23.368C103.441 24.1401 102.514 24.5323 101.301 24.5323ZM101.449 12.632C99.1493 12.632 97.3229 13.3057 96.0215 14.6344C94.7203 15.9633 94.0601 17.8022 94.0601 20.1006C94.0601 22.2845 94.7046 24.0396 95.9749 25.3189C97.2452 26.5986 98.9739 27.2468 101.113 27.2468C103.341 27.2468 105.131 26.5637 106.433 25.2166C107.734 23.871 108.394 22.0494 108.394 19.8047C108.394 17.5875 107.775 15.8185 106.554 14.5478C105.332 13.2764 103.615 12.632 101.449 12.632ZM89.02 15.3825V12.9679H85.7401V26.9106H89.02V19.7784C89.02 18.5656 89.295 17.5693 89.8376 16.8167C90.3733 16.0732 91.0872 15.6964 91.9588 15.6964C92.2542 15.6964 92.5859 15.7451 92.945 15.8414C93.3005 15.9372 93.558 16.0412 93.7098 16.1507L93.8477 16.2506V12.9441L93.7946 12.9213C93.4891 12.7915 93.057 12.726 92.5102 12.726C91.686 12.726 90.9484 12.9909 90.3167 13.5123C89.7621 13.9706 89.3613 14.599 89.0549 15.3825H89.02ZM79.8665 12.632C78.3618 12.632 77.0197 12.9547 75.8781 13.5907C74.7341 14.2282 73.8494 15.1383 73.2475 16.2956C72.6482 17.4501 72.344 18.7987 72.344 20.3026C72.344 21.62 72.639 22.8289 73.222 23.8944C73.8054 24.9616 74.6311 25.7966 75.6763 26.3757C76.7201 26.954 77.9264 27.2472 79.2621 27.2472C80.8208 27.2472 82.1516 26.9356 83.2186 26.3211L83.2617 26.2964V23.2916L83.1239 23.3922C82.6405 23.7443 82.1004 24.0253 81.5192 24.2278C80.9395 24.4301 80.411 24.5323 79.9476 24.5323C78.6606 24.5323 77.6275 24.1296 76.8775 23.3357C76.126 22.5408 75.7449 21.4246 75.7449 20.02C75.7449 18.6065 76.1423 17.4616 76.9255 16.6168C77.7063 15.7745 78.7414 15.3472 80.0017 15.3472C81.0798 15.3472 82.1303 15.7123 83.1241 16.4332L83.2617 16.5331V13.3671L83.2173 13.3421C82.8433 13.1327 82.3332 12.9598 81.6999 12.8287C81.0693 12.6979 80.4525 12.632 79.8665 12.632ZM70.0851 12.9681H66.8052V26.9106H70.0851V12.9681ZM68.4787 7.02843C67.9389 7.02843 67.468 7.21219 67.0812 7.57633C66.6928 7.94149 66.4958 8.40126 66.4958 8.94386C66.4958 9.47793 66.6904 9.92932 67.0752 10.2848C67.4574 10.6392 67.9297 10.8188 68.4788 10.8188C69.0278 10.8188 69.5018 10.6392 69.8886 10.2854C70.2779 9.92931 70.4754 9.47808 70.4754 8.94386C70.4754 8.42024 70.2832 7.96518 69.9047 7.59104C69.5264 7.21763 69.0465 7.02843 68.4787 7.02843ZM60.2952 11.9394V26.9106H63.6425V7.45524H59.0097L53.1212 21.9061L47.4068 7.45524H42.5854V26.9105H45.731V11.9379H45.839L51.8733 26.9106H54.2471L60.1872 11.9394H60.2952Z" fill="#A2BDE6"/>
<path d="M15.8171 16.3827H0.387695V0.953857H15.8171V16.3827Z" fill="#A2BDE6"/>
<path d="M32.8539 16.3827H17.4248V0.953857H32.8539V16.3827Z" fill="#A2BDE6"/>
<path d="M15.8162 33.4238H0.387207V17.9951H15.8162V33.4238Z" fill="#A2BDE6"/>
<path d="M32.8539 33.4238H17.4248V17.9951H32.8539V33.4238Z" fill="#A2BDE6"/>
</svg>
