<svg width="109" height="30" viewBox="0 0 109 30" fill="none" xmlns="http://www.w3.org/2000/svg">
<path d="M102.42 14.5041L108.154 29.4538C106.464 29.2162 104.775 28.9184 103.055 28.6502L99.8248 20.3899L96.5056 27.9684C94.8764 27.7002 93.2762 27.6108 91.6469 27.4026L97.4713 14.3263L92.1886 0.923828H97.0782L100.035 8.41202L103.205 0.923828H108.153L102.42 14.5041ZM88.3277 0.923828H83.891V26.8386C85.3397 26.928 86.8481 26.9869 88.3277 27.1648V0.923828ZM80.058 26.541C76.0145 26.2737 71.9699 26.037 67.8356 25.9466V0.923943H72.3621V21.7269C74.958 21.7859 77.5529 21.9933 80.058 22.1121V26.541ZM63.0059 11.0586V15.5159H56.8194V25.6498H52.3539V0.923828H65.0292V5.38115H56.8204V11.0587H63.0068L63.0059 11.0586ZM44.7476 5.38115V25.8876C43.2382 25.8876 41.6999 25.8876 40.2203 25.9466V5.38115H35.5423V0.923828H49.4545V5.38115H44.7476ZM30.6538 15.7528C28.6623 15.7528 26.3078 15.7528 24.6178 15.8432V22.4697C27.2736 22.2909 29.9294 22.0835 32.615 21.9942V26.2737L20.0914 27.2551V0.923828H32.6142V5.38115H24.6177V11.3848C26.3686 11.3848 29.0543 11.2955 30.6535 11.2955V15.7537L30.6538 15.7528ZM5.57334 13.2564V28.829C3.9451 29.0078 2.49549 29.216 0.957031 29.4538V0.923828H5.27299L11.1574 17.1214V0.923828H15.6847V27.6108C14.0854 27.879 12.4553 27.9684 10.7353 28.2052L5.57334 13.2564Z" fill="#A2BDE6"/>
</svg>
