<svg width="134" height="49" viewBox="0 0 134 49" fill="none" xmlns="http://www.w3.org/2000/svg">
<g clip-path="url(#clip0_213_921)">
<path d="M56.6158 25.0156C52.5934 25.0156 50.5822 23.0626 50.5822 19.1569V13.6771H48.4787L47.2642 10.3834H50.5822V6.18604H54.9835V10.3834H59.21V13.6771H54.9835V18.982C54.9835 19.7982 55.1681 20.4102 55.5373 20.8182C55.926 21.2263 56.5381 21.4304 57.3737 21.4304C57.7797 21.4304 58.2159 21.3688 58.6066 21.2538L59.7347 24.316C59.3266 24.5298 58.8408 24.6949 58.2773 24.8115C57.7137 24.9476 57.1599 25.0156 56.6158 25.0156Z" fill="#A2BDE6"/>
<path d="M61.376 24.6949V6.07251H65.7773V12.3362C66.2826 11.5978 66.9335 11.044 67.7302 10.6748C68.527 10.2861 69.4111 10.0918 70.3827 10.0918C73.7445 10.0918 75.4253 12.0933 75.4253 16.0963V24.6949H71.024V16.3003C71.024 15.3093 70.8394 14.6 70.4702 14.1725C70.101 13.7256 69.5569 13.5021 68.8379 13.5021C67.9051 13.5021 67.157 13.7936 66.5935 14.3766C66.0494 14.9595 65.7773 15.7368 65.7773 16.7084V24.6949H61.376Z" fill="#A2BDE6"/>
<path d="M86.1435 25.0155C84.453 25.0155 82.9955 24.7143 81.7713 24.1119C80.5665 23.4901 79.6338 22.6254 78.9731 21.5177C78.3319 20.3907 78.0112 19.0694 78.0112 17.5537C78.0112 16.0769 78.3221 14.7846 78.944 13.677C79.5852 12.5499 80.45 11.6755 81.5381 11.0537C82.6458 10.4124 83.9186 10.0918 85.3565 10.0918C87.4358 10.0918 89.0875 10.7525 90.3117 12.0739C91.5359 13.3758 92.148 15.1441 92.148 17.3788V18.4864H82.2086C82.364 19.6135 82.7721 20.4392 83.4328 20.9639C84.1129 21.4691 85.0456 21.7218 86.231 21.7218C87.0083 21.7218 87.7953 21.6052 88.592 21.372C89.3887 21.1388 90.1077 20.7793 90.7489 20.2935L91.9148 23.2375C91.1959 23.7816 90.3117 24.2188 89.2624 24.5491C88.2325 24.86 87.1929 25.0155 86.1435 25.0155ZM85.5314 13.0066C84.5987 13.0066 83.8408 13.2884 83.2579 13.8519C82.6944 14.4154 82.3446 15.2024 82.2086 16.2129H88.5045C88.3879 14.0754 87.3969 13.0066 85.5314 13.0066Z" fill="#A2BDE6"/>
<path d="M94.7666 24.6949V10.3833H99.0805V12.4528C99.508 11.7144 100.091 11.1411 100.829 10.7331C101.587 10.3055 102.462 10.0918 103.453 10.0918C104.463 10.0918 105.318 10.3153 106.018 10.7622C106.737 11.2091 107.281 11.8893 107.65 12.8026C108.097 11.9476 108.738 11.2869 109.574 10.8205C110.429 10.3347 111.371 10.0918 112.401 10.0918C114.033 10.0918 115.248 10.5873 116.045 11.5783C116.841 12.5499 117.24 14.0559 117.24 16.0963V24.6949H112.838V16.242C112.838 15.2899 112.683 14.6 112.372 14.1725C112.081 13.7256 111.575 13.5021 110.856 13.5021C110.021 13.5021 109.37 13.7936 108.903 14.3766C108.437 14.9595 108.204 15.7854 108.204 16.8541V24.6949H103.802V16.242C103.802 15.2899 103.647 14.6 103.336 14.1725C103.025 13.7256 102.52 13.5021 101.82 13.5021C100.985 13.5021 100.334 13.7936 99.8675 14.3766C99.4011 14.9595 99.168 15.7854 99.168 16.8541V24.6949H94.7666Z" fill="#A2BDE6"/>
<path d="M127.639 25.0155C125.949 25.0155 124.491 24.7143 123.267 24.1119C122.062 23.4901 121.129 22.6254 120.469 21.5177C119.827 20.3907 119.507 19.0694 119.507 17.5537C119.507 16.0769 119.818 14.7846 120.44 13.677C121.081 12.5499 121.946 11.6755 123.034 11.0537C124.141 10.4124 125.414 10.0918 126.852 10.0918C128.931 10.0918 130.583 10.7525 131.807 12.0739C133.032 13.3758 133.644 15.1441 133.644 17.3788V18.4864H123.704C123.86 19.6135 124.268 20.4392 124.928 20.9639C125.608 21.4691 126.541 21.7218 127.727 21.7218C128.504 21.7218 129.291 21.6052 130.088 21.372C130.884 21.1388 131.603 20.7793 132.245 20.2935L133.41 23.2375C132.691 23.7816 131.807 24.2188 130.758 24.5491C129.728 24.86 128.688 25.0155 127.639 25.0155ZM127.027 13.0066C126.094 13.0066 125.336 13.2884 124.753 13.8519C124.19 14.4154 123.84 15.2024 123.704 16.2129H130C129.884 14.0754 128.893 13.0066 127.027 13.0066Z" fill="#A2BDE6"/>
<path d="M52.9927 41.3805L47.1631 27.0688H51.6227L55.0331 36.2505L58.4434 27.0688H61.3582L64.7685 36.3671L68.1788 27.0688H72.4053L66.634 41.3805H62.903L59.755 33.2482L56.6945 41.3805H52.9927Z" fill="#A2BDE6"/>
<path d="M77.994 41.761C76.9252 41.761 75.9828 41.5569 75.1666 41.1488C74.3505 40.7408 73.6995 40.187 73.2137 39.4874C72.7473 38.7879 72.5142 38.0009 72.5142 37.1264C72.5142 36.0965 72.7862 35.2707 73.3303 34.6488C73.8744 34.027 74.7586 33.5898 75.9828 33.3372C77.207 33.0651 78.8296 32.9291 80.8505 32.9291H81.8998V32.4336C81.8998 31.5786 81.7055 30.9762 81.3169 30.6264C80.9282 30.2572 80.2675 30.0726 79.3348 30.0726C78.5575 30.0726 77.7317 30.1989 76.8572 30.4515C76.0022 30.6847 75.1472 31.0442 74.2922 31.53L73.0971 28.586C73.6024 28.2557 74.2145 27.9545 74.9334 27.6825C75.6719 27.4104 76.4394 27.2064 77.2361 27.0703C78.0329 26.9149 78.7907 26.8372 79.5097 26.8372C81.7249 26.8372 83.3767 27.3424 84.4649 28.3529C85.5531 29.3439 86.0971 30.8887 86.0971 32.9874V41.4403H81.9873V39.2834C81.6958 40.0412 81.2003 40.6436 80.5007 41.0905C79.8206 41.5375 78.985 41.761 77.994 41.761ZM78.985 38.817C79.8012 38.817 80.491 38.5352 81.0545 37.9717C81.6181 37.4082 81.8998 36.6795 81.8998 35.7856V35.2026H80.8796C79.3834 35.2026 78.3243 35.3387 77.7025 35.6107C77.0807 35.8633 76.7698 36.3103 76.7698 36.9515C76.7698 37.4956 76.9544 37.9426 77.3236 38.2923C77.7122 38.6421 78.266 38.817 78.985 38.817Z" fill="#A2BDE6"/>
<path d="M95.9226 41.7609C94.241 41.7609 92.8093 41.4481 91.6278 40.8227C90.4602 40.1972 89.3957 39.4161 88.6789 38.2582C87.9328 37.0528 87.7681 35.7564 87.7681 34.2552C87.7681 32.6984 87.9705 31.2423 88.7802 30.095C89.6151 28.9116 90.5853 28.1673 91.7945 27.5419C93.0038 26.9164 94.529 26.8662 96.1728 26.8662C97.0592 26.8662 98.1523 26.8917 99.0834 27.1698C100.015 27.4478 100.703 27.6759 101.385 28.1048L100.218 31.0654C99.1492 30.3686 97.6865 30.095 96.1728 30.095C94.8527 30.095 93.7614 30.5688 93.0663 31.3194C92.3854 32.0699 92.0239 32.8375 92.0239 34.2552C92.0239 35.673 92.5184 36.6691 93.2133 37.3919C93.9084 38.1145 94.7899 38.5501 96.152 38.5501C96.7914 38.5501 97.5072 38.4528 98.2994 38.2582V35.944H95.3597V33.2545H101.427V40.635C100.648 40.9963 99.7797 41.2745 98.8206 41.469C97.8616 41.6635 96.8957 41.7609 95.9226 41.7609Z" fill="#A2BDE6"/>
<path d="M110.62 41.761C109.085 41.761 107.745 41.4598 106.598 40.8574C105.471 40.2355 104.597 39.3708 103.975 38.2632C103.353 37.1361 103.042 35.805 103.042 34.2699C103.042 32.7542 103.353 31.4425 103.975 30.3349C104.597 29.2079 105.471 28.3431 106.598 27.7407C107.745 27.1384 109.085 26.8372 110.62 26.8372C112.156 26.8372 113.487 27.1384 114.614 27.7407C115.76 28.3431 116.644 29.2079 117.266 30.3349C117.907 31.4425 118.228 32.7542 118.228 34.2699C118.228 35.805 117.907 37.1361 117.266 38.2632C116.644 39.3708 115.76 40.2355 114.614 40.8574C113.487 41.4598 112.156 41.761 110.62 41.761ZM110.62 38.4672C111.553 38.4672 112.311 38.1272 112.894 37.447C113.496 36.7669 113.798 35.7079 113.798 34.2699C113.798 32.8514 113.496 31.8118 112.894 31.1511C112.311 30.4709 111.553 30.1309 110.62 30.1309C109.688 30.1309 108.93 30.4709 108.347 31.1511C107.764 31.8118 107.472 32.8514 107.472 34.2699C107.472 35.7079 107.764 36.7669 108.347 37.447C108.93 38.1272 109.688 38.4672 110.62 38.4672Z" fill="#A2BDE6"/>
<path d="M119.894 41.4403V27.1286H124.208V29.2273C124.694 28.45 125.345 27.8573 126.161 27.4493C126.977 27.0412 127.89 26.8372 128.901 26.8372C130.591 26.8372 131.854 27.3327 132.69 28.3237C133.526 29.2953 133.943 30.8013 133.943 32.8417V41.4403H129.542V33.0457C129.542 32.0547 129.357 31.3454 128.988 30.9179C128.619 30.4709 128.075 30.2475 127.356 30.2475C126.423 30.2475 125.675 30.539 125.112 31.1219C124.567 31.7049 124.295 32.4822 124.295 33.4538V41.4403H119.894Z" fill="#A2BDE6"/>
<path d="M43.4857 25.7289C43.4857 21.9779 42.3694 18.1912 39.6659 15.591C37.7318 13.7308 35.7923 12.4731 32.705 10.7807C27.945 8.17161 21.6235 6.87062 21.6235 6.87062C24.8992 6.18934 27.7005 6.84163 27.8164 6.86882C18.2623 2.1923 11.417 5.45915 11.417 5.45915L6.81115 2.11621C5.91243 3.6998 6.48681 6.32887 6.83106 7.50842C6.94523 7.91428 6.88723 8.35818 6.65893 8.70608L3.7907 13.1307C3.67656 13.3047 3.60045 13.5185 3.60045 13.7504L3.52436 16.4555C2.01323 18.5809 1.23049 20.6683 0.828253 22.2917C0.445942 22.3696 0.121613 22.7374 0.0255821 23.2194C-0.0686367 23.7412 0.101682 24.225 0.465872 24.4369C0.407892 25.0567 0.427824 25.4045 0.427824 25.4045L2.93187 29.5392C3.37034 30.177 4.17301 30.4289 4.89958 30.1192L7.70984 28.9595C8.16825 28.7656 8.45453 28.3217 8.45453 27.8197V25.3646C8.45453 25.0948 8.55055 24.8428 8.72269 24.649C9.23908 24.0511 10.5962 22.9113 13.5387 22.9113C17.514 22.9113 18.5468 18.2149 18.2225 16.2816C18.2225 16.2816 19.7499 20.8821 16.9596 23.3932C15.7565 24.4768 15.6025 26.3303 16.5392 27.664C18.4653 30.6807 18.632 42.6429 5.76566 43.2987C10.1106 46.4497 15.4539 48.3069 21.232 48.3069C24.2199 48.3069 27.5737 47.5385 29.7679 46.8936C34.0638 45.2067 36.4558 43.2987 38.7984 40.744C42.3986 36.8177 42.8878 31.9146 41.9982 27.7037C39.9343 17.925 27.2438 9.05395 14.6277 7.16052C20.8407 8.08822 31.4527 10.1392 38.6842 18.1189C40.7497 20.3981 43.4857 25.7289 43.4857 25.7289ZM5.95049 17.0154C4.97569 14.852 8.28239 14.5621 8.28239 14.5621C7.82398 18.021 5.95049 17.0154 5.95049 17.0154Z" fill="#A2BDE6"/>
<path d="M11.8211 4.44277C13.4463 3.90464 14.3197 3.67634 15.8145 3.38461L10.6578 0C10.165 0.423984 9.38769 2.32828 10.0237 3.17444L11.8211 4.44277Z" fill="#A2BDE6"/>
</g>
<defs>
<clipPath id="clip0_213_921">
<rect width="134" height="48.3776" fill="white"/>
</clipPath>
</defs>
</svg>
